<mxfile host="app.diagrams.net" modified="2021-04-26T10:43:20.077Z" agent="5.0 (Windows NT 10.0; Win64; x64) AppleWebKit/537.36 (KHTML, like Gecko) Chrome/89.0.4389.128 Safari/537.36" etag="d0Tf_exmNHEtTW7Zhccp" version="14.5.7" type="github">
  <diagram id="xYbOT0yvrShMDJwtsMDZ" name="Page-1">
    <mxGraphModel dx="814" dy="1740" grid="1" gridSize="10" guides="1" tooltips="1" connect="1" arrows="1" fold="1" page="1" pageScale="1" pageWidth="850" pageHeight="1100" math="0" shadow="0">
      <root>
        <mxCell id="0" />
        <mxCell id="1" parent="0" />
        <mxCell id="ofN0dQzV4asK8odjg124-2" value="comm addEmployee" style="shape=umlFrame;whiteSpace=wrap;html=1;width=130;height=20;" vertex="1" parent="1">
          <mxGeometry y="-740" width="1410" height="530" as="geometry" />
        </mxCell>
        <mxCell id="ofN0dQzV4asK8odjg124-3" value="human resource manager" style="shape=umlActor;verticalLabelPosition=bottom;verticalAlign=top;html=1;" vertex="1" parent="1">
          <mxGeometry x="60" y="-660" width="30" height="60" as="geometry" />
        </mxCell>
        <mxCell id="ofN0dQzV4asK8odjg124-4" value="" style="line;strokeWidth=1;fillColor=none;align=left;verticalAlign=middle;spacingTop=-1;spacingLeft=3;spacingRight=3;rotatable=0;labelPosition=right;points=[];portConstraint=eastwest;" vertex="1" parent="1">
          <mxGeometry x="110" y="-630" width="230" height="8" as="geometry" />
        </mxCell>
        <mxCell id="ofN0dQzV4asK8odjg124-7" value=":FacadeService" style="html=1;" vertex="1" parent="1">
          <mxGeometry x="770" y="-550" width="130" height="29" as="geometry" />
        </mxCell>
        <mxCell id="ofN0dQzV4asK8odjg124-8" value=":EmployeeService" style="html=1;" vertex="1" parent="1">
          <mxGeometry x="1090" y="-550" width="130" height="29" as="geometry" />
        </mxCell>
        <mxCell id="ofN0dQzV4asK8odjg124-9" value=":EmployeeController" style="html=1;" vertex="1" parent="1">
          <mxGeometry x="840" y="-260" width="130" height="29" as="geometry" />
        </mxCell>
        <mxCell id="ofN0dQzV4asK8odjg124-11" value=":DalController" style="html=1;" vertex="1" parent="1">
          <mxGeometry x="340" y="-310" width="130" height="29" as="geometry" />
        </mxCell>
        <mxCell id="ofN0dQzV4asK8odjg124-12" value=":FacadeEmployee" style="html=1;" vertex="1" parent="1">
          <mxGeometry x="340" y="-420" width="130" height="29" as="geometry" />
        </mxCell>
        <mxCell id="ofN0dQzV4asK8odjg124-13" value="loggedIn:Employee" style="html=1;" vertex="1" parent="1">
          <mxGeometry x="1260" y="-550" width="130" height="29" as="geometry" />
        </mxCell>
        <mxCell id="ofN0dQzV4asK8odjg124-14" value="Employee" style="html=1;" vertex="1" parent="1">
          <mxGeometry x="510" y="-270" width="130" height="29" as="geometry" />
        </mxCell>
        <mxCell id="ofN0dQzV4asK8odjg124-15" value="employees:Employee" style="html=1;" vertex="1" parent="1">
          <mxGeometry x="520" y="-260" width="130" height="29" as="geometry" />
        </mxCell>
        <mxCell id="ofN0dQzV4asK8odjg124-16" value="" style="endArrow=none;html=1;entryX=1;entryY=0.5;entryDx=0;entryDy=0;exitX=0;exitY=0.5;exitDx=0;exitDy=0;" edge="1" parent="1" source="ofN0dQzV4asK8odjg124-5">
          <mxGeometry width="50" height="50" relative="1" as="geometry">
            <mxPoint x="280" y="-560" as="sourcePoint" />
            <mxPoint x="350" y="-626" as="targetPoint" />
          </mxGeometry>
        </mxCell>
        <mxCell id="ofN0dQzV4asK8odjg124-17" value="" style="endArrow=none;html=1;entryX=0.5;entryY=1;entryDx=0;entryDy=0;exitX=0.5;exitY=0;exitDx=0;exitDy=0;" edge="1" parent="1" source="ofN0dQzV4asK8odjg124-7" target="ofN0dQzV4asK8odjg124-24">
          <mxGeometry width="50" height="50" relative="1" as="geometry">
            <mxPoint x="280" y="-560" as="sourcePoint" />
            <mxPoint x="285" y="-611.5" as="targetPoint" />
          </mxGeometry>
        </mxCell>
        <mxCell id="ofN0dQzV4asK8odjg124-18" value="" style="endArrow=none;html=1;entryX=0;entryY=0.5;entryDx=0;entryDy=0;exitX=1;exitY=0.5;exitDx=0;exitDy=0;" edge="1" parent="1" source="ofN0dQzV4asK8odjg124-7" target="ofN0dQzV4asK8odjg124-8">
          <mxGeometry width="50" height="50" relative="1" as="geometry">
            <mxPoint x="280" y="-560" as="sourcePoint" />
            <mxPoint x="330" y="-610" as="targetPoint" />
          </mxGeometry>
        </mxCell>
        <mxCell id="ofN0dQzV4asK8odjg124-19" value="" style="endArrow=none;html=1;entryX=0;entryY=0.5;entryDx=0;entryDy=0;exitX=1;exitY=0.5;exitDx=0;exitDy=0;" edge="1" parent="1" source="ofN0dQzV4asK8odjg124-15" target="ofN0dQzV4asK8odjg124-9">
          <mxGeometry width="50" height="50" relative="1" as="geometry">
            <mxPoint x="280" y="-560" as="sourcePoint" />
            <mxPoint x="330" y="-610" as="targetPoint" />
          </mxGeometry>
        </mxCell>
        <mxCell id="ofN0dQzV4asK8odjg124-20" value="" style="endArrow=none;html=1;entryX=0.5;entryY=1;entryDx=0;entryDy=0;exitX=0.5;exitY=0;exitDx=0;exitDy=0;" edge="1" parent="1" source="ofN0dQzV4asK8odjg124-9" target="ofN0dQzV4asK8odjg124-8">
          <mxGeometry width="50" height="50" relative="1" as="geometry">
            <mxPoint x="280" y="-560" as="sourcePoint" />
            <mxPoint x="330" y="-610" as="targetPoint" />
          </mxGeometry>
        </mxCell>
        <mxCell id="ofN0dQzV4asK8odjg124-21" value="&lt;font style=&quot;font-size: 10px&quot;&gt;1:display=addEmployee()&lt;br&gt;1.1.1: choice=getInt()&lt;br&gt;1.2.1:ID=getID()&lt;br&gt;1.2.2:transactionDate=getTransactionDate()&lt;br&gt;1.2.3:bankDetails=getBankAccountDetails()&lt;br&gt;1.2.5:termsDetails=getTermsDetails()&lt;br&gt;&lt;/font&gt;" style="text;html=1;strokeColor=none;fillColor=none;align=center;verticalAlign=middle;whiteSpace=wrap;rounded=0;" vertex="1" parent="1">
          <mxGeometry x="182.5" y="-690" width="85" height="20" as="geometry" />
        </mxCell>
        <mxCell id="ofN0dQzV4asK8odjg124-23" value="&lt;font style=&quot;font-size: 10px&quot;&gt;1.1:role=roleMenu()&lt;br&gt;1.2:facadeEmployee=getEmployeeDetails(role)&lt;br&gt;&lt;/font&gt;" style="text;html=1;strokeColor=none;fillColor=none;align=center;verticalAlign=middle;whiteSpace=wrap;rounded=0;" vertex="1" parent="1">
          <mxGeometry x="590" y="-660" width="90" height="20" as="geometry" />
        </mxCell>
        <mxCell id="ofN0dQzV4asK8odjg124-24" value=":PresentationController" style="html=1;" vertex="1" parent="1">
          <mxGeometry x="770" y="-640" width="130" height="29" as="geometry" />
        </mxCell>
        <mxCell id="ofN0dQzV4asK8odjg124-5" value=":MenuPrinter&lt;span style=&quot;color: rgba(0 , 0 , 0 , 0) ; font-family: monospace ; font-size: 0px&quot;&gt;%3CmxGraphModel%3E%3Croot%3E%3CmxCell%20id%3D%220%22%2F%3E%3CmxCell%20id%3D%221%22%20parent%3D%220%22%2F%3E%3CmxCell%20id%3D%222%22%20value%3D%22PresentationController%22%20style%3D%22html%3D1%3B%22%20vertex%3D%221%22%20parent%3D%221%22%3E%3CmxGeometry%20x%3D%22330%22%20y%3D%22-640%22%20width%3D%22130%22%20height%3D%2229%22%20as%3D%22geometry%22%2F%3E%3C%2FmxCell%3E%3C%2Froot%3E%3C%2FmxGraphModel%3E&lt;/span&gt;" style="html=1;" vertex="1" parent="1">
          <mxGeometry x="340" y="-640.5" width="130" height="29" as="geometry" />
        </mxCell>
        <mxCell id="ofN0dQzV4asK8odjg124-28" value="" style="endArrow=none;html=1;entryX=1;entryY=0.5;entryDx=0;entryDy=0;exitX=0;exitY=0.5;exitDx=0;exitDy=0;" edge="1" parent="1" source="ofN0dQzV4asK8odjg124-24" target="ofN0dQzV4asK8odjg124-5">
          <mxGeometry width="50" height="50" relative="1" as="geometry">
            <mxPoint x="770" y="-625.4999999999999" as="sourcePoint" />
            <mxPoint x="350" y="-626" as="targetPoint" />
          </mxGeometry>
        </mxCell>
        <mxCell id="ofN0dQzV4asK8odjg124-29" value="" style="endArrow=none;html=1;entryX=0.5;entryY=1;entryDx=0;entryDy=0;exitX=0.5;exitY=0;exitDx=0;exitDy=0;" edge="1" parent="1" source="ofN0dQzV4asK8odjg124-12" target="ofN0dQzV4asK8odjg124-5">
          <mxGeometry width="50" height="50" relative="1" as="geometry">
            <mxPoint x="580" y="-490" as="sourcePoint" />
            <mxPoint x="630" y="-540" as="targetPoint" />
          </mxGeometry>
        </mxCell>
        <mxCell id="ofN0dQzV4asK8odjg124-32" value="&lt;font style=&quot;font-size: 10px&quot;&gt;1.2.4:create(bankDetails)&lt;br&gt;&lt;/font&gt;" style="text;html=1;strokeColor=none;fillColor=none;align=center;verticalAlign=middle;whiteSpace=wrap;rounded=0;" vertex="1" parent="1">
          <mxGeometry x="230" y="-600" width="90" height="20" as="geometry" />
        </mxCell>
        <mxCell id="ofN0dQzV4asK8odjg124-33" value=":FacadeEmployee" style="html=1;" vertex="1" parent="1">
          <mxGeometry x="160" y="-420" width="130" height="29" as="geometry" />
        </mxCell>
        <mxCell id="ofN0dQzV4asK8odjg124-34" value=":FacadeBankAccount" style="html=1;" vertex="1" parent="1">
          <mxGeometry x="160" y="-559.5" width="130" height="29" as="geometry" />
        </mxCell>
        <mxCell id="ofN0dQzV4asK8odjg124-36" value="" style="endArrow=none;html=1;entryX=0.5;entryY=1;entryDx=0;entryDy=0;exitX=1;exitY=0.5;exitDx=0;exitDy=0;" edge="1" parent="1" source="ofN0dQzV4asK8odjg124-34" target="ofN0dQzV4asK8odjg124-5">
          <mxGeometry width="50" height="50" relative="1" as="geometry">
            <mxPoint x="415" y="-410" as="sourcePoint" />
            <mxPoint x="415" y="-601.5" as="targetPoint" />
          </mxGeometry>
        </mxCell>
        <mxCell id="ofN0dQzV4asK8odjg124-37" value="" style="endArrow=none;html=1;entryX=0.5;entryY=1;entryDx=0;entryDy=0;exitX=1;exitY=0.5;exitDx=0;exitDy=0;" edge="1" parent="1" source="ofN0dQzV4asK8odjg124-33" target="ofN0dQzV4asK8odjg124-5">
          <mxGeometry width="50" height="50" relative="1" as="geometry">
            <mxPoint x="300" y="-535" as="sourcePoint" />
            <mxPoint x="415" y="-601.5" as="targetPoint" />
          </mxGeometry>
        </mxCell>
        <mxCell id="ofN0dQzV4asK8odjg124-38" value="&lt;font style=&quot;font-size: 10px&quot;&gt;1.2.6:create(termsDetails)&lt;br&gt;&lt;/font&gt;" style="text;html=1;strokeColor=none;fillColor=none;align=center;verticalAlign=middle;whiteSpace=wrap;rounded=0;" vertex="1" parent="1">
          <mxGeometry x="220" y="-504" width="90" height="20" as="geometry" />
        </mxCell>
        <mxCell id="ofN0dQzV4asK8odjg124-40" value="&lt;font style=&quot;font-size: 10px&quot;&gt;1.2.7:create(ID,transactionDate,&lt;br&gt;facadeBankAccount,&lt;br&gt;facadeTermsOfEmployment)&lt;br&gt;&lt;/font&gt;" style="text;html=1;strokeColor=none;fillColor=none;align=center;verticalAlign=middle;whiteSpace=wrap;rounded=0;" vertex="1" parent="1">
          <mxGeometry x="450" y="-555" width="90" height="20" as="geometry" />
        </mxCell>
        <mxCell id="ofN0dQzV4asK8odjg124-47" value="&lt;font style=&quot;font-size: 10px&quot;&gt;1.3:addEmployee(facadeEmployee)&lt;br&gt;&lt;/font&gt;" style="text;html=1;strokeColor=none;fillColor=none;align=center;verticalAlign=middle;whiteSpace=wrap;rounded=0;" vertex="1" parent="1">
          <mxGeometry x="880" y="-590" width="90" height="20" as="geometry" />
        </mxCell>
        <mxCell id="ofN0dQzV4asK8odjg124-48" value="&lt;font style=&quot;font-size: 10px&quot;&gt;1.3.1:addEmployee(facadeEmployee)&lt;br&gt;&lt;/font&gt;" style="text;html=1;strokeColor=none;fillColor=none;align=center;verticalAlign=middle;whiteSpace=wrap;rounded=0;" vertex="1" parent="1">
          <mxGeometry x="950" y="-524" width="90" height="20" as="geometry" />
        </mxCell>
        <mxCell id="ofN0dQzV4asK8odjg124-51" value="&lt;font style=&quot;font-size: 10px&quot;&gt;1.3.1.1:addEmployee(facadeEmployee)&lt;br&gt;&lt;br&gt;&lt;/font&gt;" style="text;html=1;strokeColor=none;fillColor=none;align=center;verticalAlign=middle;whiteSpace=wrap;rounded=0;" vertex="1" parent="1">
          <mxGeometry x="950" y="-460" width="90" height="20" as="geometry" />
        </mxCell>
        <mxCell id="ofN0dQzV4asK8odjg124-52" value="" style="endArrow=block;html=1;exitX=1;exitY=0;exitDx=0;exitDy=0;entryX=1;entryY=0.25;entryDx=0;entryDy=0;endFill=1;" edge="1" parent="1" source="ofN0dQzV4asK8odjg124-9" target="ofN0dQzV4asK8odjg124-9">
          <mxGeometry width="50" height="50" relative="1" as="geometry">
            <mxPoint x="1040" y="-580" as="sourcePoint" />
            <mxPoint x="1090" y="-630" as="targetPoint" />
            <Array as="points">
              <mxPoint x="970" y="-290" />
              <mxPoint x="1020" y="-290" />
              <mxPoint x="1020" y="-253" />
            </Array>
          </mxGeometry>
        </mxCell>
        <mxCell id="ofN0dQzV4asK8odjg124-53" value="" style="endArrow=none;html=1;exitX=0.5;exitY=0;exitDx=0;exitDy=0;entryX=0.5;entryY=1;entryDx=0;entryDy=0;" edge="1" parent="1" source="ofN0dQzV4asK8odjg124-9" target="ofN0dQzV4asK8odjg124-13">
          <mxGeometry width="50" height="50" relative="1" as="geometry">
            <mxPoint x="1120" y="-620" as="sourcePoint" />
            <mxPoint x="1170" y="-670" as="targetPoint" />
          </mxGeometry>
        </mxCell>
        <mxCell id="ofN0dQzV4asK8odjg124-54" value="&lt;font style=&quot;font-size: 10px&quot;&gt;1.3.1.1.1:getisManager()&lt;br&gt;&lt;/font&gt;" style="text;html=1;strokeColor=none;fillColor=none;align=center;verticalAlign=middle;whiteSpace=wrap;rounded=0;" vertex="1" parent="1">
          <mxGeometry x="1170" y="-415.5" width="90" height="20" as="geometry" />
        </mxCell>
        <mxCell id="ofN0dQzV4asK8odjg124-55" value="" style="endArrow=none;html=1;exitX=1;exitY=0.5;exitDx=0;exitDy=0;entryX=0.5;entryY=0;entryDx=0;entryDy=0;" edge="1" parent="1" source="ofN0dQzV4asK8odjg124-12" target="ofN0dQzV4asK8odjg124-9">
          <mxGeometry width="50" height="50" relative="1" as="geometry">
            <mxPoint x="730" y="-410" as="sourcePoint" />
            <mxPoint x="780" y="-460" as="targetPoint" />
          </mxGeometry>
        </mxCell>
        <mxCell id="ofN0dQzV4asK8odjg124-56" value="&lt;font style=&quot;font-size: 10px&quot;&gt;1.3.1.1.2:id=getID()&lt;br&gt;1.3.1.1.3:terms2=getFacadeTermsOfEmployment()&lt;br&gt;1.3.1.1.5:bank2=getFacadeBankAccountInfo()&lt;br&gt;1.3.1.1.7:role=getRole()&lt;br&gt;1.3.1.1.8:transactionDate=getTransactionDate()&lt;br&gt;&lt;/font&gt;" style="text;html=1;strokeColor=none;fillColor=none;align=center;verticalAlign=middle;whiteSpace=wrap;rounded=0;" vertex="1" parent="1">
          <mxGeometry x="760" y="-400" width="90" height="20" as="geometry" />
        </mxCell>
        <mxCell id="ofN0dQzV4asK8odjg124-57" value="&lt;font style=&quot;font-size: 10px&quot;&gt;1.3.1.1.3:validId(id)&lt;br&gt;1.3.1.1.4:terms=createTerms(terms2)&lt;br&gt;1.3.1.1.6:bank=createAccount(bank2)&lt;br&gt;&lt;/font&gt;" style="text;html=1;strokeColor=none;fillColor=none;align=center;verticalAlign=middle;whiteSpace=wrap;rounded=0;" vertex="1" parent="1">
          <mxGeometry x="1060" y="-310" width="90" height="20" as="geometry" />
        </mxCell>
        <mxCell id="ofN0dQzV4asK8odjg124-60" value="newEmployee:Employee" style="html=1;" vertex="1" parent="1">
          <mxGeometry x="1230" y="-260" width="140" height="29" as="geometry" />
        </mxCell>
        <mxCell id="ofN0dQzV4asK8odjg124-61" value="" style="endArrow=none;html=1;exitX=1;exitY=0.5;exitDx=0;exitDy=0;entryX=0;entryY=0.5;entryDx=0;entryDy=0;" edge="1" parent="1" source="ofN0dQzV4asK8odjg124-9" target="ofN0dQzV4asK8odjg124-60">
          <mxGeometry width="50" height="50" relative="1" as="geometry">
            <mxPoint x="930" y="-360" as="sourcePoint" />
            <mxPoint x="980" y="-410" as="targetPoint" />
          </mxGeometry>
        </mxCell>
        <mxCell id="ofN0dQzV4asK8odjg124-62" value="&lt;font style=&quot;font-size: 10px&quot;&gt;1.3.1.1.9:create(ID,transactionDate,role, bank,terms)&lt;br&gt;&lt;/font&gt;" style="text;html=1;strokeColor=none;fillColor=none;align=center;verticalAlign=middle;whiteSpace=wrap;rounded=0;" vertex="1" parent="1">
          <mxGeometry x="970" y="-241" width="250" height="20" as="geometry" />
        </mxCell>
        <mxCell id="ofN0dQzV4asK8odjg124-63" value="&lt;font style=&quot;font-size: 10px&quot;&gt;1.3.1.1.11:put(newEmployee)&lt;br&gt;&lt;/font&gt;" style="text;html=1;strokeColor=none;fillColor=none;align=center;verticalAlign=middle;whiteSpace=wrap;rounded=0;" vertex="1" parent="1">
          <mxGeometry x="570" y="-305.5" width="130" height="20" as="geometry" />
        </mxCell>
        <mxCell id="ofN0dQzV4asK8odjg124-64" value="&lt;font style=&quot;font-size: 10px&quot;&gt;1.3.1.1.10:put(newEmployee)&lt;br&gt;&lt;/font&gt;" style="text;html=1;strokeColor=none;fillColor=none;align=center;verticalAlign=middle;whiteSpace=wrap;rounded=0;" vertex="1" parent="1">
          <mxGeometry x="660" y="-231" width="130" height="20" as="geometry" />
        </mxCell>
        <mxCell id="ofN0dQzV4asK8odjg124-65" value="" style="endArrow=none;html=1;exitX=1;exitY=0.5;exitDx=0;exitDy=0;entryX=0;entryY=0.5;entryDx=0;entryDy=0;" edge="1" parent="1" source="ofN0dQzV4asK8odjg124-11" target="ofN0dQzV4asK8odjg124-9">
          <mxGeometry width="50" height="50" relative="1" as="geometry">
            <mxPoint x="770" y="-370" as="sourcePoint" />
            <mxPoint x="820" y="-420" as="targetPoint" />
          </mxGeometry>
        </mxCell>
        <mxCell id="ofN0dQzV4asK8odjg124-66" value="" style="endArrow=classic;html=1;" edge="1" parent="1">
          <mxGeometry width="50" height="50" relative="1" as="geometry">
            <mxPoint x="642" y="-617" as="sourcePoint" />
            <mxPoint x="622" y="-617" as="targetPoint" />
            <Array as="points">
              <mxPoint x="642" y="-617" />
            </Array>
          </mxGeometry>
        </mxCell>
        <mxCell id="ofN0dQzV4asK8odjg124-68" value="" style="endArrow=classic;html=1;" edge="1" parent="1">
          <mxGeometry width="50" height="50" relative="1" as="geometry">
            <mxPoint x="230" y="-617" as="sourcePoint" />
            <mxPoint x="200" y="-617" as="targetPoint" />
          </mxGeometry>
        </mxCell>
        <mxCell id="ofN0dQzV4asK8odjg124-70" value="" style="endArrow=classic;html=1;" edge="1" parent="1">
          <mxGeometry width="50" height="50" relative="1" as="geometry">
            <mxPoint x="289" y="-714" as="sourcePoint" />
            <mxPoint x="309" y="-714" as="targetPoint" />
          </mxGeometry>
        </mxCell>
        <mxCell id="ofN0dQzV4asK8odjg124-71" value="" style="endArrow=classic;html=1;entryX=0.385;entryY=-0.345;entryDx=0;entryDy=0;entryPerimeter=0;" edge="1" parent="1" target="ofN0dQzV4asK8odjg124-7">
          <mxGeometry width="50" height="50" relative="1" as="geometry">
            <mxPoint x="820" y="-580" as="sourcePoint" />
            <mxPoint x="830" y="-560" as="targetPoint" />
            <Array as="points">
              <mxPoint x="820" y="-580" />
            </Array>
          </mxGeometry>
        </mxCell>
        <mxCell id="ofN0dQzV4asK8odjg124-72" value="" style="endArrow=classic;html=1;" edge="1" parent="1">
          <mxGeometry width="50" height="50" relative="1" as="geometry">
            <mxPoint x="983" y="-543" as="sourcePoint" />
            <mxPoint x="1003" y="-543" as="targetPoint" />
            <Array as="points" />
          </mxGeometry>
        </mxCell>
        <mxCell id="ofN0dQzV4asK8odjg124-73" value="" style="endArrow=classic;html=1;" edge="1" parent="1">
          <mxGeometry width="50" height="50" relative="1" as="geometry">
            <mxPoint x="1100" y="-450" as="sourcePoint" />
            <mxPoint x="1080" y="-430" as="targetPoint" />
            <Array as="points" />
          </mxGeometry>
        </mxCell>
        <mxCell id="ofN0dQzV4asK8odjg124-74" value="" style="endArrow=classic;html=1;" edge="1" parent="1">
          <mxGeometry width="50" height="50" relative="1" as="geometry">
            <mxPoint x="760" y="-320" as="sourcePoint" />
            <mxPoint x="730" y="-330" as="targetPoint" />
            <Array as="points" />
          </mxGeometry>
        </mxCell>
        <mxCell id="ofN0dQzV4asK8odjg124-76" value="" style="endArrow=classic;html=1;" edge="1" parent="1">
          <mxGeometry width="50" height="50" relative="1" as="geometry">
            <mxPoint x="1130" y="-250" as="sourcePoint" />
            <mxPoint x="1160" y="-250" as="targetPoint" />
            <Array as="points" />
          </mxGeometry>
        </mxCell>
        <mxCell id="ofN0dQzV4asK8odjg124-77" value="" style="endArrow=classic;html=1;" edge="1" parent="1">
          <mxGeometry width="50" height="50" relative="1" as="geometry">
            <mxPoint x="1100" y="-390" as="sourcePoint" />
            <mxPoint x="1130" y="-410" as="targetPoint" />
            <Array as="points" />
          </mxGeometry>
        </mxCell>
        <mxCell id="ofN0dQzV4asK8odjg124-78" value="" style="endArrow=classic;html=1;entryX=0.284;entryY=-0.231;entryDx=0;entryDy=0;entryPerimeter=0;exitX=0.7;exitY=-0.212;exitDx=0;exitDy=0;exitPerimeter=0;" edge="1" parent="1" source="ofN0dQzV4asK8odjg124-64" target="ofN0dQzV4asK8odjg124-64">
          <mxGeometry width="50" height="50" relative="1" as="geometry">
            <mxPoint x="770" y="-310" as="sourcePoint" />
            <mxPoint x="740" y="-320" as="targetPoint" />
            <Array as="points" />
          </mxGeometry>
        </mxCell>
        <mxCell id="ofN0dQzV4asK8odjg124-79" value="" style="endArrow=classic;html=1;entryX=0.777;entryY=1.265;entryDx=0;entryDy=0;entryPerimeter=0;" edge="1" parent="1" target="ofN0dQzV4asK8odjg124-63">
          <mxGeometry width="50" height="50" relative="1" as="geometry">
            <mxPoint x="700" y="-270" as="sourcePoint" />
            <mxPoint x="706.9200000000001" y="-225.62000000000012" as="targetPoint" />
            <Array as="points" />
          </mxGeometry>
        </mxCell>
        <mxCell id="ofN0dQzV4asK8odjg124-80" value="" style="endArrow=classic;html=1;entryX=1.014;entryY=1.352;entryDx=0;entryDy=0;entryPerimeter=0;" edge="1" parent="1" target="ofN0dQzV4asK8odjg124-32">
          <mxGeometry width="50" height="50" relative="1" as="geometry">
            <mxPoint x="350" y="-590" as="sourcePoint" />
            <mxPoint x="310" y="-570" as="targetPoint" />
          </mxGeometry>
        </mxCell>
        <mxCell id="ofN0dQzV4asK8odjg124-81" value="" style="endArrow=classic;html=1;" edge="1" parent="1">
          <mxGeometry width="50" height="50" relative="1" as="geometry">
            <mxPoint x="355" y="-502" as="sourcePoint" />
            <mxPoint x="335" y="-472" as="targetPoint" />
          </mxGeometry>
        </mxCell>
        <mxCell id="ofN0dQzV4asK8odjg124-82" value="" style="endArrow=classic;html=1;" edge="1" parent="1">
          <mxGeometry width="50" height="50" relative="1" as="geometry">
            <mxPoint x="400" y="-530" as="sourcePoint" />
            <mxPoint x="400" y="-500" as="targetPoint" />
          </mxGeometry>
        </mxCell>
      </root>
    </mxGraphModel>
  </diagram>
</mxfile>
